<svg xmlns="http://www.w3.org/2000/svg" xmlns:xlink="http://www.w3.org/1999/xlink" width="310" height="146" viewBox="0 0 310 146"><defs><radialGradient id="a" cx="0.5" cy="0.5" r="0.5" gradientUnits="objectBoundingBox"><stop offset="0" stop-color="gold"/><stop offset="0.475" stop-color="gold"/><stop offset="1" stop-color="#ff0"/></radialGradient><clipPath id="f"><rect width="310" height="146"/></clipPath></defs><g id="e" clip-path="url(#f)"><rect width="310" height="146" fill="rgba(0,0,0,0)"/><g transform="translate(-430 -276)"><text transform="translate(585 350)" fill="#fff" stroke="#98000a" stroke-width="1" font-size="72" font-family="Elephant-Regular, Elephant"><tspan x="-154.548" y="0">MyTop3</tspan></text><g transform="translate(2 6)"><path d="M-329.451,392.494l-6.78,15.863h-18.426l14.923,11.6-5.839,18.4,16.123-11.331,17.1,11.331-6.488-18.4,17.129-11.6h-19.724Z" transform="translate(850 -26)" stroke="#aa771c" stroke-width="1" fill="url(#a)"/><path d="M-329.451,392.494l-6.78,15.863h-18.426l14.923,11.6-5.839,18.4,16.123-11.331,17.1,11.331-6.488-18.4,17.129-11.6h-19.724Z" transform="translate(911 -26)" stroke="#aa771c" stroke-width="1" fill="url(#a)"/><path d="M-329.451,392.494l-6.78,15.863h-18.426l14.923,11.6-5.839,18.4,16.123-11.331,17.1,11.331-6.488-18.4,17.129-11.6h-19.724Z" transform="translate(972 -26)" stroke="#aa771c" stroke-width="1" fill="url(#a)"/></g><path d="M-348.4,392.494l-1.683,4.619h-4.575l3.7,3.377-1.45,5.356,4-3.3,4.244,3.3-1.611-5.356,4.252-3.377h-4.9Z" transform="translate(1062 -113.494)" stroke="#aa771c" stroke-width="1" fill="url(#a)"/></g></g></svg>