<svg xmlns="http://www.w3.org/2000/svg" xmlns:xlink="http://www.w3.org/1999/xlink" width="314" height="190" viewBox="0 0 314 190"><defs><linearGradient id="a" x1="0.5" x2="0.5" y2="1" gradientUnits="objectBoundingBox"><stop offset="0" stop-color="#6c7cf6"/><stop offset="0.586" stop-color="#4e60d1"/><stop offset="1" stop-color="#021975"/></linearGradient><linearGradient id="b" x1="0.5" x2="0.5" y2="1" gradientUnits="objectBoundingBox"><stop offset="0" stop-color="#583ff8"/><stop offset="0.462" stop-color="#0e0e77"/><stop offset="1" stop-color="#030663"/></linearGradient><linearGradient id="c" x1="0.5" x2="0.5" y2="1" gradientUnits="objectBoundingBox"><stop offset="0" stop-color="#596dfa"/><stop offset="0.582" stop-color="#4655d6"/><stop offset="1" stop-color="#050055"/></linearGradient><linearGradient id="d" x1="0.5" x2="0.5" y2="1" gradientUnits="objectBoundingBox"><stop offset="0" stop-color="#5f55f9"/><stop offset="0.944" stop-color="#2a27a0"/><stop offset="1" stop-color="#00035a"/></linearGradient><linearGradient id="e" x1="0.5" x2="0.5" y2="1" gradientUnits="objectBoundingBox"><stop offset="0" stop-color="#6359f8"/><stop offset="0.462" stop-color="#4a3fcf"/><stop offset="1" stop-color="#150675"/></linearGradient><linearGradient id="f" x1="0.5" x2="0.5" y2="1" gradientUnits="objectBoundingBox"><stop offset="0" stop-color="#4f39da"/><stop offset="0.693" stop-color="#4936c1"/><stop offset="1" stop-color="#3a2f80"/></linearGradient><clipPath id="h"><rect width="314" height="190"/></clipPath></defs><g id="g" clip-path="url(#h)"><rect width="314" height="190" fill="rgba(2,0,5,0.06)"/><g transform="translate(-31 -24.202)" style="isolation:isolate"><g transform="translate(-2753 2)" stroke-linejoin="bevel" fill="url(#a)"><path d="M 2858.801025390625 153.2302551269531 L 2849.7041015625 153.2302551269531 L 2843.799560546875 76.46932983398438 L 2843.55126953125 73.24019622802734 L 2841.935791015625 76.0472412109375 L 2824.865966796875 105.7091293334961 L 2817.842529296875 105.7091293334961 L 2804.73193359375 76.14069366455078 L 2802.82177734375 76.45845794677734 L 2796.072509765625 153.2302551269531 L 2788.11376953125 153.2302551269531 L 2797.658447265625 35.96622848510742 L 2821.110595703125 90.59925842285156 L 2821.962646484375 92.58407592773438 L 2822.9248046875 90.65026092529297 L 2850.320068359375 35.59122085571289 L 2858.801025390625 153.2302551269531 Z" stroke="none"/><path d="M 2857.726318359375 152.2302551269531 L 2849.585693359375 39.31195449829102 L 2823.820068359375 91.09572601318359 L 2820.191650390625 90.99371337890625 L 2798.328369140625 40.06197357177734 L 2789.198486328125 152.2302551269531 L 2795.15673828125 152.2302551269531 L 2801.825439453125 76.37088012695313 L 2805.646240234375 75.73534393310547 L 2818.4931640625 104.7091293334961 L 2824.287841796875 104.7091293334961 L 2841.069091796875 75.5484619140625 L 2844.796630859375 76.39264678955078 L 2850.630126953125 152.2302551269531 L 2857.726318359375 152.2302551269531 M 2859.875732421875 154.2302551269531 L 2848.778076171875 154.2302551269531 L 2842.802490234375 76.54602813720703 L 2825.4443359375 106.7091293334961 L 2817.192138671875 106.7091293334961 L 2803.81787109375 76.54602813720703 L 2796.988525390625 154.2302551269531 L 2787.029052734375 154.2302551269531 L 2796.988525390625 31.87046241760254 L 2822.029541015625 90.20479583740234 L 2851.054443359375 31.87046241760254 L 2859.875732421875 154.2302551269531 Z" stroke="none" fill="#fff"/></g><path d="M2917.171,104.831l8.585,41.311h3.5l13.491-40.224h7.008l-30.312,96.212h-6.833L2923.3,166.98l-13.531-62.148Z" transform="translate(-2801 7.539)" stroke="#fff" stroke-width="2" fill="url(#b)"/><path d="M2943.08,39.155h43.44l-4.539-6.808h-88.5l-4.538,6.808h42.468v112.48h11.67Z" transform="translate(-2776 4)" stroke="#fff" stroke-width="2" fill="url(#c)"/><g transform="translate(176 109.202)" stroke="#fff" stroke-width="2" fill="url(#d)"><ellipse cx="21" cy="22.5" rx="21" ry="22.5" stroke="none"/><ellipse cx="21" cy="22.5" rx="20" ry="21.5" fill="none"/></g><path d="M2982.306,113.168v99.09h6.159V152.284s35.66,2.918,30.8-21.4S2982.306,113.168,2982.306,113.168Z" transform="translate(-2759 -0.798)" stroke="#fff" stroke-width="2" fill="url(#e)"/><g transform="translate(231 123.202)" fill="#fff" stroke="#0c07b3" stroke-width="2"><ellipse cx="9" cy="10.5" rx="9" ry="10.5" stroke="none"/><ellipse cx="9" cy="10.5" rx="8" ry="9.5" fill="none"/></g><path d="M3046.9,142.46s-8.415,13.111-9.161,14.177c.4,2.581.863,2.251,1.476,2.724a4.332,4.332,0,0,0,2.951,1.022s43.018,7.945,62.087-8.172c10.1-7.945,11-23.326,10.669-30.93-.329-9.188-3.859-17.707-9.194-23.155-8.286-11.01-25.886-16-25.886-16l21.679-35.484V34.348h-62.082v14.51h44.344l-25.292,36.435V99.741s33.9,4.195,35.218,22.8c.08,1.913.815,5.541-1.141,9.615s-7.893,7.264-7.893,7.264l-4.918,1.929a115.4,115.4,0,0,1-12.449,2.378C3060.956,144.218,3046.9,142.46,3046.9,142.46Z" transform="translate(-2770.972 -6)" stroke="#fff" stroke-width="2" fill="url(#f)"/><g transform="translate(185 119.202)" fill="#fff" stroke="#0c07b3" stroke-width="2"><ellipse cx="12" cy="12.5" rx="12" ry="12.5" stroke="none"/><ellipse cx="12" cy="12.5" rx="11" ry="11.5" fill="none"/></g></g></g></svg>